<?xml version="1.0" encoding="iso-8859-1"?>
<!-- Generator: Adobe Illustrator 19.0.0, SVG Export Plug-In . SVG Version: 6.00 Build 0)  -->
<svg version="1.1" id="Layer_1" xmlns="http://www.w3.org/2000/svg" xmlns:xlink="http://www.w3.org/1999/xlink" x="0px" y="0px"
	 viewBox="0 0 503.607 503.607" style="enable-background:new 0 0 503.607 503.607;" xml:space="preserve">
<g transform="translate(1 1)">
	<path style="fill:#FFDD09;" d="M262.974,94.685v72.184c0,9.233-5.875,16.787-12.59,16.787c-6.715,0-12.59-7.554-12.59-16.787
		V94.685c-35.252,62.111-54.557,138.492-54.557,217.39v89.81c0,51.2,30.216,92.328,67.148,92.328s67.148-41.128,67.148-92.328
		v-89.81C317.531,233.177,298.226,156.797,262.974,94.685"/>
	<path style="fill:#FFFFFF;" d="M183.236,401.885v-89.81c0-75.541,17.626-148.564,50.361-208.997v-8.393
		c-48.682,62.111-75.541,138.492-75.541,217.39v89.81c0,51.2,41.128,92.328,92.328,92.328
		C213.452,494.213,183.236,453.085,183.236,401.885"/>
	<path style="fill:#FD9808;" d="M267.17,94.685v8.393c32.734,60.433,50.361,133.456,50.361,208.997v89.81
		c0,51.2-30.216,92.328-67.148,92.328c51.2,0,92.328-41.128,92.328-92.328v-89.81C342.711,233.177,315.852,156.797,267.17,94.685"/>
	<g>
		<path style="fill:#FCC309;" d="M250.384,183.656L250.384,183.656c-9.233,0-16.787-7.554-16.787-16.787V7.393h33.574v159.475
			C267.17,176.102,259.616,183.656,250.384,183.656"/>
		<path style="fill:#FCC309;" d="M359.498,15.787L267.17,49.361v45.325c16.787,21.823,31.895,45.325,42.807,70.505l66.308-48.682
			L359.498,15.787z"/>
		<path style="fill:#FCC309;" d="M233.597,49.361L233.597,49.361l-92.328-33.574l-16.787,100.721l66.308,47.843
			c11.751-25.18,26.02-48.682,42.807-70.505V49.361z"/>
	</g>
	<path d="M216.81,208.836h-40.289c-5.036,0-8.393-3.357-8.393-8.393s3.357-8.393,8.393-8.393h40.289
		c5.036,0,8.393,3.357,8.393,8.393S221.846,208.836,216.81,208.836z"/>
	<path d="M250.384,192.049c-14.269,0-25.18-10.911-25.18-25.18V7.393c0-5.036,3.357-8.393,8.393-8.393h33.574
		c5.036,0,8.393,3.357,8.393,8.393v159.475C275.564,181.138,264.652,192.049,250.384,192.049z M241.99,15.787v151.082
		c0,5.036,3.357,8.393,8.393,8.393s8.393-3.357,8.393-8.393V15.787H241.99z"/>
	<path d="M250.384,502.607c-55.397,0-100.721-44.485-100.721-100.721v-89.81c0-80.577,27.698-159.475,77.22-222.426
		c2.518-2.518,5.875-4.197,9.233-2.518c3.357,0.839,5.875,4.197,5.875,7.554v72.184c0,5.036,3.357,8.393,8.393,8.393
		s8.393-3.357,8.393-8.393V94.685c0-3.357,2.518-6.715,5.875-7.554c3.357-0.839,6.715,0,9.233,2.518
		c49.521,62.951,77.22,142.689,77.22,222.426v89.81C351.105,458.121,305.78,502.607,250.384,502.607z M225.203,120.705
		c-37.77,56.236-58.754,123.384-58.754,191.37v89.81c0,46.164,37.77,83.934,83.934,83.934s83.934-37.77,83.934-83.934v-89.81
		c0-67.987-20.984-135.134-58.754-191.37v46.164c0,14.269-10.911,25.18-25.18,25.18c-14.269,0-25.18-10.911-25.18-25.18V120.705z"/>
	<path d="M310.816,172.744c-0.839,0-1.679,0-2.518,0c-2.518-0.839-4.197-2.518-5.875-4.197
		c-10.911-24.341-25.18-47.003-41.967-68.826c-0.839-1.679-1.679-3.357-1.679-5.036V48.521c0-3.357,2.518-6.715,5.875-7.554
		L356.98,7.393c2.518-0.839,5.036-0.839,7.554,0.839c2.518,0.839,3.357,3.357,4.197,5.875l16.787,100.721
		c0.839,3.357-0.839,6.715-3.357,8.393l-66.308,47.843C314.174,171.905,312.495,172.744,310.816,172.744z M276.403,91.328
		c14.269,18.466,26.859,39.449,37.771,60.433l53.718-39.449l-14.269-85.613l-77.22,27.698V91.328L276.403,91.328z"/>
	<path d="M190.79,173.584c-1.679,0-3.357-0.839-5.036-1.679l-66.308-47.843c-2.518-1.679-4.197-5.036-3.357-8.393l16.787-100.721
		c0-2.518,1.679-4.197,4.197-5.875c2.518-1.679,5.036-1.679,6.715-0.839l92.328,33.574c3.357,0.839,5.875,4.197,5.875,7.554v45.325
		c0,1.679-0.839,3.357-1.679,5.036c-16.787,20.984-31.056,44.485-41.967,68.826c-0.839,2.518-3.357,4.197-5.875,4.197
		C191.63,172.744,191.63,173.584,190.79,173.584z M133.715,113.151l53.718,39.449c10.911-20.984,23.502-41.128,37.77-60.433V55.236
		l-77.22-27.698L133.715,113.151z"/>
	<path d="M250.384,502.607c-0.839,0-1.679,0-1.679,0c-54.557-0.839-99.043-47.003-99.043-103.239v-14.269
		c0-2.518,1.679-5.036,3.357-6.715c2.518-1.679,5.036-1.679,7.554-0.839l1.679,0.839c56.236,20.984,119.187,20.984,175.423,0
		l1.679-0.839c2.518-0.839,5.036-0.839,7.554,0.839c2.518,1.679,3.357,4.197,3.357,6.715v16.787
		c0,26.859-10.911,52.879-30.216,72.184C301.584,492.534,277.243,502.607,250.384,502.607z M166.449,396.849v1.679
		c0,47.003,36.931,86.452,82.256,87.292c22.662,0,44.485-8.393,60.433-24.341c15.948-15.948,25.18-36.931,25.18-59.593v-5.036
		C279.761,414.475,221.007,414.475,166.449,396.849z"/>
	<path d="M200.023,242.41h-33.574c-5.036,0-8.393-3.357-8.393-8.393c0-5.036,3.357-8.393,8.393-8.393h33.574
		c5.036,0,8.393,3.357,8.393,8.393C208.416,239.052,205.059,242.41,200.023,242.41z"/>
</g>
<g>
</g>
<g>
</g>
<g>
</g>
<g>
</g>
<g>
</g>
<g>
</g>
<g>
</g>
<g>
</g>
<g>
</g>
<g>
</g>
<g>
</g>
<g>
</g>
<g>
</g>
<g>
</g>
<g>
</g>
</svg>
